<svg width="512" height="512" viewBox="0 0 512 512" fill="none"
  xmlns="http://www.w3.org/2000/svg">
  <rect width="512" height="512" rx="100" fill="#0d6efd"/>
  <path d="M256 100C180.5 100 120 160.5 120 236C120 311.5 180.5 372 256 372C331.5 372 392 311.5 392 236C392 160.5 331.5 100 256 100ZM256 340C198.5 340 152 293.5 152 236C152 178.5 198.5 132 256 132C313.5 132 360 178.5 360 236C360 293.5 313.5 340 256 340Z" fill="white"/>
  <path d="M256 164C214.5 164 180 198.5 180 240C180 281.5 214.5 316 256 316C297.5 316 332 281.5 332 240C332 198.5 297.5 164 256 164ZM256 284C232.5 284 212 263.5 212 240C212 216.5 232.5 196 256 196C279.5 196 300 216.5 300 240C300 263.5 279.5 284 256 284Z" fill="white"/>
  <path d="M256 228C243.5 228 232 239.5 232 252C232 264.5 243.5 276 256 276C268.5 276 280 264.5 280 252C280 239.5 268.5 228 256 228Z" fill="white"/>
  <path d="M200 380L180 420H332L312 380H200Z" fill="white"/>
  <path d="M220 400L200 440H312L292 400H220Z" fill="#0d6efd"/>
</svg>
